<svg xmlns="http://www.w3.org/2000/svg" viewBox="0 0 245 240" fill="none" role="img" aria-labelledby="discordIconTitle">
  <title id="discordIconTitle">Discord</title>
  <path fill="#7289DA" d="M104.4 104.1c-5 0-9 4.6-9 10.2s4 10.2 9 10.2c5 0 9-4.6 9-10.2s-4-10.2-9-10.2zm36.2 0c-5 0-9 4.6-9 10.2s4 10.2 9 10.2c5 0 9-4.6 9-10.2s-4-10.2-9-10.2z"/>
  <path fill="#5865F2" d="M189.5 20H55.6C38 20 23 33.5 23 50.8v120.8c0 17.3 15 30.8 32.6 30.8h103.9l-4.8-16.9 11.5 10.7 10.9 10.1 19.5 17V50.8C222.5 33.5 207.5 20 189.5 20zM166.9 164.8s-8.1-9.6-14.9-17.8c29.6-8.4 40.8-26.8 40.8-26.8-9.2 6-17.9 10.3-25.9 13.2-11.3 4.2-22 6.9-32 8.5-21 3.6-40.2 2.8-56.6-0.1-7.7-1.4-15.1-3.4-22.2-6-1.5-.5-3-1-4.4-1.6-0.2-0.1-0.4-0.2-0.5-0.3-0.1 0-0.2-0.1-0.3-0.1-1.1-.5-1.7-.8-1.7-.8s10.9 18.2 39.6 27.2c-6.6 8-14.9 17.8-14.9 17.8-49.1-1.6-67.7-33.8-67.7-33.8 0-71.4 31.9-129.4 31.9-129.4C67.6 19.7 85 16.4 85 16.4l2.3 2.7c-34 9.8-49.6 24.5-49.6 24.5s12.8-6.8 34.4-14.6c62.5-21.1 118.9-11.3 118.9-11.3s9.1 20.6 30.6 36.6c0 0-16.1-14.4-47.7-26.1 0 0 40.2 57 40.2 129.3 0 0-18.6 32.2-67.7 33.8z"/>
</svg>
